<svg xmlns="http://www.w3.org/2000/svg" xmlns:xlink="http://www.w3.org/1999/xlink" width="160" height="40.369" viewBox="0 0 160 40.369">
  <defs>
    <clipPath id="clip-path">
      <rect id="矩形_2" data-name="矩形 2" width="160" height="40.369" transform="translate(0 0)" fill="#fff"/>
    </clipPath>
  </defs>
  <g id="Logo" transform="translate(27.341 0)">
    <g id="组_3059" data-name="组 3059" transform="translate(-27.341 0)" clip-path="url(#clip-path)">
      <path id="路径_12" data-name="路径 12" d="M22.543,32.934a.777.777,0,0,1-.223.4,1.3,1.3,0,0,1-.536.29,4.751,4.751,0,0,1-.937.167q-.581.056-1.429.056t-1.406-.056a3.629,3.629,0,0,1-.859-.167.787.787,0,0,1-.413-.29.467.467,0,0,1-.044-.4L19.016,21.24H8.216L5.894,32.934a.777.777,0,0,1-.223.4,1.3,1.3,0,0,1-.547.29,4.973,4.973,0,0,1-.937.167q-.569.056-1.418.056-.87,0-1.417-.056a3.791,3.791,0,0,1-.859-.167.788.788,0,0,1-.424-.29.47.47,0,0,1-.045-.4L5.493,5.618a.647.647,0,0,1,.2-.4,1.292,1.292,0,0,1,.535-.29,4.747,4.747,0,0,1,.938-.168c.386-.036.862-.055,1.428-.055s1.035.019,1.406.055a3.817,3.817,0,0,1,.87.168.731.731,0,0,1,.413.29.569.569,0,0,1,.055.4L9.22,16.241H20.043l2.1-10.623a.774.774,0,0,1,.223-.4,1.291,1.291,0,0,1,.536-.29,4.729,4.729,0,0,1,.937-.168c.387-.036.863-.055,1.429-.055s1.034.019,1.406.055a3.824,3.824,0,0,1,.87.168.729.729,0,0,1,.413.29.569.569,0,0,1,.056.4Z" transform="translate(0 -1.446)" fill="#fff"/>
      <path id="路径_13" data-name="路径 13" d="M61.965,20.566a5.778,5.778,0,0,1-.725,2.89,6.181,6.181,0,0,1-2.254,2.209A12.366,12.366,0,0,1,55.1,27.082a27.842,27.842,0,0,1-5.613.491H47.436q-.088.513-.134,1.015t-.044.927a3.642,3.642,0,0,0,.937,2.722,4.2,4.2,0,0,0,3.013.915,14.88,14.88,0,0,0,2.645-.212,20.434,20.434,0,0,0,2.053-.469q.882-.256,1.462-.469a2.834,2.834,0,0,1,.848-.211.435.435,0,0,1,.379.156.859.859,0,0,1,.111.491,6.472,6.472,0,0,1-.067.87,8.514,8.514,0,0,1-.19.97,5.625,5.625,0,0,1-.312.9,1.937,1.937,0,0,1-.435.647,2.882,2.882,0,0,1-.982.535A12.981,12.981,0,0,1,55,36.856a22.34,22.34,0,0,1-2.254.368,21.993,21.993,0,0,1-2.544.145,13.968,13.968,0,0,1-3.738-.446A6.9,6.9,0,0,1,43.8,35.562a5.61,5.61,0,0,1-1.607-2.332,9.506,9.506,0,0,1-.535-3.359,19.891,19.891,0,0,1,.279-3.2,17.611,17.611,0,0,1,.9-3.37,16.534,16.534,0,0,1,1.607-3.18,11.6,11.6,0,0,1,2.377-2.667,11.309,11.309,0,0,1,3.225-1.841,11.741,11.741,0,0,1,4.173-.692,11.255,11.255,0,0,1,3.493.48,7.128,7.128,0,0,1,2.4,1.272,5.1,5.1,0,0,1,1.395,1.807,5.039,5.039,0,0,1,.458,2.087m-5.512.424a1.861,1.861,0,0,0-.7-1.485,3.1,3.1,0,0,0-2.042-.591,4.758,4.758,0,0,0-2,.4A5.149,5.149,0,0,0,50.159,20.4,6.631,6.631,0,0,0,49.01,22a10.119,10.119,0,0,0-.769,1.975h1.875a16,16,0,0,0,2.99-.235,6.827,6.827,0,0,0,1.942-.635,2.762,2.762,0,0,0,1.071-.949,2.2,2.2,0,0,0,.334-1.171" transform="translate(-12.81 -4.588)" fill="#fff"/>
      <path id="路径_14" data-name="路径 14" d="M93.612,16.292a3.517,3.517,0,0,1-.067.647,4.932,4.932,0,0,1-.2.736q-.758,2.054-1.64,4.24t-2.02,4.508q-1.138,2.321-2.589,4.8t-3.325,5.133l-5.445,7.721a1.726,1.726,0,0,1-.5.479,2.789,2.789,0,0,1-.759.313,7.146,7.146,0,0,1-1.1.19,14.805,14.805,0,0,1-1.5.067,12.2,12.2,0,0,1-1.551-.079,2.1,2.1,0,0,1-.859-.256.471.471,0,0,1-.245-.446,1.333,1.333,0,0,1,.312-.647l5.066-6.673-3.28-19.147c-.03-.193-.06-.394-.089-.6a3.869,3.869,0,0,1-.044-.535,1.261,1.261,0,0,1,.145-.647.936.936,0,0,1,.491-.379,3.558,3.558,0,0,1,.926-.19q.581-.055,1.406-.055.915,0,1.439.033a2.613,2.613,0,0,1,.792.145.66.66,0,0,1,.368.335,2.038,2.038,0,0,1,.145.557l2.053,13.948h.045q1.116-1.673,2.03-3.392T85.288,23.6q.758-1.774,1.4-3.593t1.172-3.671a.788.788,0,0,1,.2-.391,1.106,1.106,0,0,1,.524-.268,5.879,5.879,0,0,1,.971-.156q.6-.055,1.562-.055a7.222,7.222,0,0,1,1.964.178.664.664,0,0,1,.535.647" transform="translate(-22.082 -4.756)" fill="#fff"/>
      <path id="路径_15" data-name="路径 15" d="M143.717,10.788a8.263,8.263,0,0,1-.368,2.488,7.413,7.413,0,0,1-1.071,2.142,8.088,8.088,0,0,1-1.7,1.719,8.458,8.458,0,0,1-2.221,1.194,6.049,6.049,0,0,1,1.807.625,4.82,4.82,0,0,1,2.332,2.778,6.59,6.59,0,0,1,.323,2.131,9.073,9.073,0,0,1-.29,2.22,8.9,8.9,0,0,1-.915,2.243,9.727,9.727,0,0,1-1.629,2.086,10.138,10.138,0,0,1-2.422,1.74,13.681,13.681,0,0,1-3.269,1.183,18.972,18.972,0,0,1-4.307.436h-8.011a1.736,1.736,0,0,1-1.328-.446,1.537,1.537,0,0,1-.212-1.406l5.043-25.173a2.108,2.108,0,0,1,.792-1.418,2.388,2.388,0,0,1,1.418-.435h6.94a19.265,19.265,0,0,1,3.973.357,8.512,8.512,0,0,1,2.811,1.082,4.814,4.814,0,0,1,1.719,1.83,5.573,5.573,0,0,1,.58,2.622m-7.029,13.368a2.7,2.7,0,0,0-1.06-2.254,5.521,5.521,0,0,0-3.381-.826h-3.906l-1.629,8.213h4.151a7.011,7.011,0,0,0,2.667-.447,5.3,5.3,0,0,0,1.785-1.161,4.491,4.491,0,0,0,1.038-1.641,5.506,5.506,0,0,0,.334-1.885m.982-12.274a2.525,2.525,0,0,0-.223-1.093,2.156,2.156,0,0,0-.67-.8,3.2,3.2,0,0,0-1.127-.513,6.964,6.964,0,0,0-1.729-.179h-3.191l-1.518,7.5h3.3a5.6,5.6,0,0,0,2.41-.458,4.6,4.6,0,0,0,2.466-2.778,5.471,5.471,0,0,0,.279-1.674" transform="translate(-37.017 -1.506)" fill="#fff"/>
      <path id="路径_16" data-name="路径 16" d="M175.423,36.288a.837.837,0,0,1-.19.39.981.981,0,0,1-.447.268,3.958,3.958,0,0,1-.769.156,10.181,10.181,0,0,1-1.161.056,9.274,9.274,0,0,1-1.127-.056,2.79,2.79,0,0,1-.681-.156.567.567,0,0,1-.324-.268.537.537,0,0,1-.011-.39l.6-3.236a7.72,7.72,0,0,1-1.227,1.573,10.61,10.61,0,0,1-1.8,1.45,9.848,9.848,0,0,1-2.2,1.061,7.523,7.523,0,0,1-2.432.4,7.106,7.106,0,0,1-2.645-.436,4.5,4.5,0,0,1-1.74-1.183,4.592,4.592,0,0,1-.96-1.8,8.218,8.218,0,0,1-.3-2.276,12.283,12.283,0,0,1,.1-1.551q.1-.792.256-1.618l2.455-12.342a.753.753,0,0,1,.212-.391,1.187,1.187,0,0,1,.513-.268,5.2,5.2,0,0,1,.9-.156q.558-.055,1.361-.055a13.4,13.4,0,0,1,1.35.055,3.857,3.857,0,0,1,.814.156.708.708,0,0,1,.391.268.538.538,0,0,1,.055.391L164.064,28.3a8.672,8.672,0,0,0-.168,1.026,10.05,10.05,0,0,0-.055,1.027,4.349,4.349,0,0,0,.1.97,2.091,2.091,0,0,0,.324.748,1.39,1.39,0,0,0,.569.469,2.03,2.03,0,0,0,.837.157,3.743,3.743,0,0,0,1.909-.592,7.722,7.722,0,0,0,1.886-1.629,11.773,11.773,0,0,0,1.6-2.454,13.111,13.111,0,0,0,1.06-3.068l1.7-8.615a.606.606,0,0,1,.2-.391,1.283,1.283,0,0,1,.525-.268,5.179,5.179,0,0,1,.9-.156q.558-.055,1.361-.055a13.411,13.411,0,0,1,1.35.055,4.08,4.08,0,0,1,.825.156.649.649,0,0,1,.391.268.57.57,0,0,1,.045.391Z" transform="translate(-48.592 -4.756)" fill="#fff"/>
      <path id="路径_17" data-name="路径 17" d="M207.148,17.062a5.979,5.979,0,0,1-.078.792,8.164,8.164,0,0,1-.235,1.06,4.732,4.732,0,0,1-.368.926q-.212.391-.48.391a1.47,1.47,0,0,1-.681-.212q-.391-.213-.948-.469a8.346,8.346,0,0,0-1.305-.457,6.785,6.785,0,0,0-1.752-.2,4.468,4.468,0,0,0-1.4.2,2.93,2.93,0,0,0-1.015.546,2.338,2.338,0,0,0-.614.814,2.4,2.4,0,0,0-.212,1,1.443,1.443,0,0,0,.569,1.16,7.128,7.128,0,0,0,1.417.882q.848.413,1.83.859a8.879,8.879,0,0,1,1.83,1.116,5.705,5.705,0,0,1,1.406,1.629,4.736,4.736,0,0,1,.558,2.41,7.548,7.548,0,0,1-.648,3.136,6.989,6.989,0,0,1-1.885,2.489,9.027,9.027,0,0,1-3.014,1.64,12.631,12.631,0,0,1-4.005.591,12.945,12.945,0,0,1-2.041-.156,14.771,14.771,0,0,1-1.741-.379,6.652,6.652,0,0,1-1.306-.513,4.176,4.176,0,0,1-.8-.536,1.089,1.089,0,0,1-.256-.379,1.418,1.418,0,0,1-.078-.513,4.706,4.706,0,0,1,.034-.513c.021-.208.059-.439.111-.692s.112-.506.179-.759a5.059,5.059,0,0,1,.235-.692,2.075,2.075,0,0,1,.289-.5.443.443,0,0,1,.335-.189,1.234,1.234,0,0,1,.692.268,9.456,9.456,0,0,0,.982.591,8.682,8.682,0,0,0,1.483.6,7.359,7.359,0,0,0,2.2.28,5.36,5.36,0,0,0,1.6-.213,3.18,3.18,0,0,0,1.127-.591,2.376,2.376,0,0,0,.658-.87,2.621,2.621,0,0,0,.213-1.049,1.634,1.634,0,0,0-.546-1.272,6.487,6.487,0,0,0-1.373-.915q-.826-.424-1.8-.87a8.988,8.988,0,0,1-1.8-1.093,5.433,5.433,0,0,1-1.372-1.607A4.811,4.811,0,0,1,192.6,22.4a7.2,7.2,0,0,1,.6-2.946,6.782,6.782,0,0,1,1.763-2.377,8.323,8.323,0,0,1,2.812-1.584,11.47,11.47,0,0,1,3.749-.569,13.306,13.306,0,0,1,1.818.123,11.578,11.578,0,0,1,1.585.324,8.246,8.246,0,0,1,1.226.446,2.411,2.411,0,0,1,.749.491.989.989,0,0,1,.245.759" transform="translate(-58.396 -4.588)" fill="#fff"/>
      <path id="路径_18" data-name="路径 18" d="M224.837,8.887l-1.294-1.049a4.819,4.819,0,0,0,1.629-2.789h-2.5V.385h5.8V3.6q0,2.9-3.638,5.289" transform="translate(-68.474 -0.118)" fill="#fff"/>
      <path id="路径_19" data-name="路径 19" d="M164.43,5.669V.468h6.321V3.822h-5.587V5.653a.855.855,0,0,0,.128.557.659.659,0,0,0,.491.139h3.9a.735.735,0,0,0,.406-.078.863.863,0,0,0,.185-.464c.054-.257.1-.569.143-.935l.773.224a5.9,5.9,0,0,1-.364,1.526.825.825,0,0,1-.827.413H165.62a1.372,1.372,0,0,1-.889-.247,1.473,1.473,0,0,1-.3-1.12m2.8-4.527h-2.064V3.15h2.064Zm2.8,0h-2.086V3.15h2.086Z" transform="translate(-50.564 -0.144)" fill="#fff"/>
      <path id="路径_20" data-name="路径 20" d="M181.08,0V2.318h3.13v.726h-3.13V6.058h2.735v.735h-6.329V6.058h2.759V3.044h-3.153V2.318h3.153V0Z" transform="translate(-54.458 0)" fill="#fff"/>
      <path id="路径_21" data-name="路径 21" d="M190.862,6.784l-.348.077-.247-.672.526-.1V.34h2.79V5.316l.294-.108-.008.7a24.092,24.092,0,0,1-3.006.881M192.894.95h-1.415V2.055h1.415Zm-1.415,2.859h1.415V2.666h-1.415Zm1.415,1.731V4.42h-1.415V5.926l.735-.17a4.51,4.51,0,0,0,.68-.216M195.706,0V1.537h1.53q-.179,4.2-.178,4.868t-1.406.665h-.138a.349.349,0,0,1-.055-.008l-.224-.773a5.9,5.9,0,0,0,.68.031c.3,0,.463-.08.478-.24s.031-.488.047-.989.033-1.156.054-1.971q.007-.447.023-.9h-.827a9.877,9.877,0,0,1-.3,2.23,5.8,5.8,0,0,1-.83,1.85q-.561.812-.669.812l-.587-.472q.093,0,.641-.737a4.521,4.521,0,0,0,.769-1.638,10.115,10.115,0,0,0,.258-2.044H193.9V1.537h1.089V0Z" transform="translate(-58.509 0)" fill="#fff"/>
      <path id="路径_22" data-name="路径 22" d="M205.192,5.249l.44-.186.4-.186v.75a22.67,22.67,0,0,1-2.4.973l-.116-.773.147-.039a4.281,4.281,0,0,0,.819-.27v-2h-.873V2.876h.873V1.223h-.958V.55h2.465v.672h-.795V2.876h.733v.641h-.733ZM205.74,7V6.346h2.188V5.511H206.32V4.87h1.607V4.09h-1.646V.357h4.025V4.09H208.63v.78h1.715v.641H208.63v.835h2V7ZM207.928.959h-.958v.935h.958Zm0,1.523h-.958v1h.958ZM209.62.959h-.99v.935h.99Zm0,1.523h-.99v1h.99Z" transform="translate(-62.583 -0.11)" fill="#fff"/>
    </g>
  </g>
</svg>
